<mxfile host="app.diagrams.net" modified="2024-04-09T03:09:59.636Z" agent="Mozilla/5.0 (Windows NT 10.0; Win64; x64) AppleWebKit/537.36 (KHTML, like Gecko) Chrome/123.0.0.0 Safari/537.36 Edg/123.0.0.0" etag="PjwQsN5H5MkU9xZKwtsf" version="24.2.1" type="github">
  <diagram name="第 1 页" id="5UJnm3rkqaWyZ0panyMh">
    <mxGraphModel dx="809" dy="506" grid="1" gridSize="10" guides="1" tooltips="1" connect="1" arrows="1" fold="1" page="1" pageScale="1" pageWidth="827" pageHeight="1169" math="0" shadow="0">
      <root>
        <mxCell id="0" />
        <mxCell id="1" parent="0" />
        <mxCell id="eCiQWhm53xYrDc2u4jvQ-16" value="" style="shape=umlLifeline;perimeter=lifelinePerimeter;whiteSpace=wrap;html=1;container=1;dropTarget=0;collapsible=0;recursiveResize=0;outlineConnect=0;portConstraint=eastwest;newEdgeStyle={&quot;curved&quot;:0,&quot;rounded&quot;:0};participant=umlActor;movable=0;resizable=0;rotatable=0;deletable=0;editable=0;locked=1;connectable=0;" vertex="1" parent="1">
          <mxGeometry x="160" y="110" width="20" height="400" as="geometry" />
        </mxCell>
        <mxCell id="eCiQWhm53xYrDc2u4jvQ-18" value="第三方&lt;br&gt;经销商ERP" style="shape=umlLifeline;perimeter=lifelinePerimeter;whiteSpace=wrap;html=1;container=1;dropTarget=0;collapsible=0;recursiveResize=0;outlineConnect=0;portConstraint=eastwest;newEdgeStyle={&quot;curved&quot;:0,&quot;rounded&quot;:0};movable=0;resizable=0;rotatable=0;deletable=0;editable=0;locked=1;connectable=0;" vertex="1" parent="1">
          <mxGeometry x="364" y="100" width="100" height="420" as="geometry" />
        </mxCell>
        <mxCell id="eCiQWhm53xYrDc2u4jvQ-19" value="Dcloud前端" style="shape=umlLifeline;perimeter=lifelinePerimeter;whiteSpace=wrap;html=1;container=1;dropTarget=0;collapsible=0;recursiveResize=0;outlineConnect=0;portConstraint=eastwest;newEdgeStyle={&quot;curved&quot;:0,&quot;rounded&quot;:0};movable=0;resizable=0;rotatable=0;deletable=0;editable=0;locked=1;connectable=0;" vertex="1" parent="1">
          <mxGeometry x="580" y="100" width="100" height="420" as="geometry" />
        </mxCell>
        <mxCell id="eCiQWhm53xYrDc2u4jvQ-28" value="后端低代码" style="shape=umlLifeline;perimeter=lifelinePerimeter;whiteSpace=wrap;html=1;container=1;dropTarget=0;collapsible=0;recursiveResize=0;outlineConnect=0;portConstraint=eastwest;newEdgeStyle={&quot;curved&quot;:0,&quot;rounded&quot;:0};movable=0;resizable=0;rotatable=0;deletable=0;editable=0;locked=1;connectable=0;" vertex="1" parent="1">
          <mxGeometry x="790" y="100" width="100" height="420" as="geometry" />
        </mxCell>
        <mxCell id="eCiQWhm53xYrDc2u4jvQ-29" value="经销商" style="shape=umlLifeline;perimeter=lifelinePerimeter;whiteSpace=wrap;html=1;container=1;dropTarget=0;collapsible=0;recursiveResize=0;outlineConnect=0;portConstraint=eastwest;newEdgeStyle={&quot;curved&quot;:0,&quot;rounded&quot;:0};movable=1;resizable=1;rotatable=1;deletable=1;editable=1;locked=0;connectable=1;" vertex="1" parent="1">
          <mxGeometry x="980" y="100" width="100" height="420" as="geometry" />
        </mxCell>
        <mxCell id="eCiQWhm53xYrDc2u4jvQ-35" value="" style="edgeStyle=orthogonalEdgeStyle;rounded=0;orthogonalLoop=1;jettySize=auto;html=1;curved=0;" edge="1" parent="1">
          <mxGeometry relative="1" as="geometry">
            <mxPoint x="175" y="187" as="sourcePoint" />
            <mxPoint x="409" y="187" as="targetPoint" />
          </mxGeometry>
        </mxCell>
        <mxCell id="eCiQWhm53xYrDc2u4jvQ-36" value="1、手动导出Excel（商品、客户、订单）" style="edgeLabel;html=1;align=center;verticalAlign=middle;resizable=0;points=[];" vertex="1" connectable="0" parent="eCiQWhm53xYrDc2u4jvQ-35">
          <mxGeometry x="-0.1841" y="-2" relative="1" as="geometry">
            <mxPoint x="40" y="-19" as="offset" />
          </mxGeometry>
        </mxCell>
        <mxCell id="eCiQWhm53xYrDc2u4jvQ-33" value="" style="html=1;points=[[0,0,0,0,5],[0,1,0,0,-5],[1,0,0,0,5],[1,1,0,0,-5]];perimeter=orthogonalPerimeter;outlineConnect=0;targetShapes=umlLifeline;portConstraint=eastwest;newEdgeStyle={&quot;curved&quot;:0,&quot;rounded&quot;:0};" vertex="1" parent="1">
          <mxGeometry x="165" y="170" width="10" height="80" as="geometry" />
        </mxCell>
        <mxCell id="eCiQWhm53xYrDc2u4jvQ-42" style="edgeStyle=orthogonalEdgeStyle;rounded=0;orthogonalLoop=1;jettySize=auto;html=1;curved=0;" edge="1" parent="1" source="eCiQWhm53xYrDc2u4jvQ-41" target="eCiQWhm53xYrDc2u4jvQ-33">
          <mxGeometry relative="1" as="geometry" />
        </mxCell>
        <mxCell id="eCiQWhm53xYrDc2u4jvQ-43" value="2、获取商品、客户、订单Excel" style="edgeLabel;html=1;align=center;verticalAlign=middle;resizable=0;points=[];" vertex="1" connectable="0" parent="eCiQWhm53xYrDc2u4jvQ-42">
          <mxGeometry x="0.3876" y="-1" relative="1" as="geometry">
            <mxPoint x="43" y="11" as="offset" />
          </mxGeometry>
        </mxCell>
        <mxCell id="eCiQWhm53xYrDc2u4jvQ-41" value="" style="html=1;points=[[0,0,0,0,5],[0,1,0,0,-5],[1,0,0,0,5],[1,1,0,0,-5]];perimeter=orthogonalPerimeter;outlineConnect=0;targetShapes=umlLifeline;portConstraint=eastwest;newEdgeStyle={&quot;curved&quot;:0,&quot;rounded&quot;:0};" vertex="1" parent="1">
          <mxGeometry x="409" y="170" width="10" height="80" as="geometry" />
        </mxCell>
        <mxCell id="eCiQWhm53xYrDc2u4jvQ-46" value="" style="edgeStyle=orthogonalEdgeStyle;rounded=0;orthogonalLoop=1;jettySize=auto;html=1;curved=0;" edge="1" parent="1">
          <mxGeometry relative="1" as="geometry">
            <mxPoint x="175" y="320" as="sourcePoint" />
            <mxPoint x="625" y="320" as="targetPoint" />
          </mxGeometry>
        </mxCell>
        <mxCell id="eCiQWhm53xYrDc2u4jvQ-48" value="3、选择商品、客户、订单Excel，导入Dlocud" style="edgeLabel;html=1;align=center;verticalAlign=middle;resizable=0;points=[];" vertex="1" connectable="0" parent="eCiQWhm53xYrDc2u4jvQ-46">
          <mxGeometry x="-0.0086" y="4" relative="1" as="geometry">
            <mxPoint x="11" y="-6" as="offset" />
          </mxGeometry>
        </mxCell>
        <mxCell id="eCiQWhm53xYrDc2u4jvQ-50" value="" style="edgeStyle=orthogonalEdgeStyle;rounded=0;orthogonalLoop=1;jettySize=auto;html=1;curved=0;" edge="1" parent="1">
          <mxGeometry relative="1" as="geometry">
            <mxPoint x="635" y="333" as="sourcePoint" />
            <mxPoint x="834.9999999999998" y="333" as="targetPoint" />
          </mxGeometry>
        </mxCell>
        <mxCell id="eCiQWhm53xYrDc2u4jvQ-51" value="4、将Excel透传给到后端低代码" style="edgeLabel;html=1;align=center;verticalAlign=middle;resizable=0;points=[];" vertex="1" connectable="0" parent="eCiQWhm53xYrDc2u4jvQ-50">
          <mxGeometry x="-0.1978" y="4" relative="1" as="geometry">
            <mxPoint x="35" y="-9" as="offset" />
          </mxGeometry>
        </mxCell>
        <mxCell id="eCiQWhm53xYrDc2u4jvQ-73" style="edgeStyle=orthogonalEdgeStyle;rounded=0;orthogonalLoop=1;jettySize=auto;html=1;curved=0;" edge="1" parent="1" target="eCiQWhm53xYrDc2u4jvQ-57">
          <mxGeometry relative="1" as="geometry">
            <mxPoint x="180" y="569.9000000000001" as="targetPoint" />
            <mxPoint x="625" y="570.0000000000002" as="sourcePoint" />
            <Array as="points">
              <mxPoint x="400" y="571" />
            </Array>
          </mxGeometry>
        </mxCell>
        <mxCell id="eCiQWhm53xYrDc2u4jvQ-74" value="9.5 返回给到用户导入成功" style="edgeLabel;html=1;align=center;verticalAlign=middle;resizable=0;points=[];" vertex="1" connectable="0" parent="eCiQWhm53xYrDc2u4jvQ-73">
          <mxGeometry x="0.2436" y="-1" relative="1" as="geometry">
            <mxPoint x="32" y="-9" as="offset" />
          </mxGeometry>
        </mxCell>
        <mxCell id="eCiQWhm53xYrDc2u4jvQ-45" value="" style="html=1;points=[[0,0,0,0,5],[0,1,0,0,-5],[1,0,0,0,5],[1,1,0,0,-5]];perimeter=orthogonalPerimeter;outlineConnect=0;targetShapes=umlLifeline;portConstraint=eastwest;newEdgeStyle={&quot;curved&quot;:0,&quot;rounded&quot;:0};" vertex="1" parent="1">
          <mxGeometry x="625" y="310" width="10" height="270" as="geometry" />
        </mxCell>
        <mxCell id="eCiQWhm53xYrDc2u4jvQ-60" style="edgeStyle=orthogonalEdgeStyle;rounded=0;orthogonalLoop=1;jettySize=auto;html=1;curved=0;" edge="1" parent="1">
          <mxGeometry relative="1" as="geometry">
            <mxPoint x="835" y="486" as="sourcePoint" />
            <mxPoint x="635" y="486" as="targetPoint" />
          </mxGeometry>
        </mxCell>
        <mxCell id="eCiQWhm53xYrDc2u4jvQ-61" value="8.1 校验失败：返回错误信息" style="edgeLabel;html=1;align=center;verticalAlign=middle;resizable=0;points=[];" vertex="1" connectable="0" parent="eCiQWhm53xYrDc2u4jvQ-60">
          <mxGeometry x="0.2005" y="2" relative="1" as="geometry">
            <mxPoint x="35" y="-18" as="offset" />
          </mxGeometry>
        </mxCell>
        <mxCell id="eCiQWhm53xYrDc2u4jvQ-66" value="" style="edgeStyle=orthogonalEdgeStyle;rounded=0;orthogonalLoop=1;jettySize=auto;html=1;curved=0;" edge="1" parent="1">
          <mxGeometry relative="1" as="geometry">
            <mxPoint x="845" y="492.9999999999999" as="sourcePoint" />
            <mxPoint x="1025" y="492.9999999999999" as="targetPoint" />
          </mxGeometry>
        </mxCell>
        <mxCell id="eCiQWhm53xYrDc2u4jvQ-67" value="9.1 校验成功，调用数据存储API" style="edgeLabel;html=1;align=center;verticalAlign=middle;resizable=0;points=[];" vertex="1" connectable="0" parent="eCiQWhm53xYrDc2u4jvQ-66">
          <mxGeometry x="-0.2908" y="-1" relative="1" as="geometry">
            <mxPoint x="31" y="-14" as="offset" />
          </mxGeometry>
        </mxCell>
        <mxCell id="eCiQWhm53xYrDc2u4jvQ-71" style="edgeStyle=orthogonalEdgeStyle;rounded=0;orthogonalLoop=1;jettySize=auto;html=1;curved=0;" edge="1" parent="1" source="eCiQWhm53xYrDc2u4jvQ-49" target="eCiQWhm53xYrDc2u4jvQ-45">
          <mxGeometry relative="1" as="geometry">
            <Array as="points">
              <mxPoint x="700" y="560" />
              <mxPoint x="700" y="560" />
            </Array>
          </mxGeometry>
        </mxCell>
        <mxCell id="eCiQWhm53xYrDc2u4jvQ-72" value="9.4 校验成功，导入成功" style="edgeLabel;html=1;align=center;verticalAlign=middle;resizable=0;points=[];" vertex="1" connectable="0" parent="eCiQWhm53xYrDc2u4jvQ-71">
          <mxGeometry x="0.0254" y="-3" relative="1" as="geometry">
            <mxPoint y="13" as="offset" />
          </mxGeometry>
        </mxCell>
        <mxCell id="eCiQWhm53xYrDc2u4jvQ-49" value="" style="html=1;points=[[0,0,0,0,5],[0,1,0,0,-5],[1,0,0,0,5],[1,1,0,0,-5]];perimeter=orthogonalPerimeter;outlineConnect=0;targetShapes=umlLifeline;portConstraint=eastwest;newEdgeStyle={&quot;curved&quot;:0,&quot;rounded&quot;:0};" vertex="1" parent="1">
          <mxGeometry x="835" y="320" width="10" height="260" as="geometry" />
        </mxCell>
        <mxCell id="eCiQWhm53xYrDc2u4jvQ-53" value="5、数据解析" style="html=1;align=left;spacingLeft=2;endArrow=block;rounded=0;edgeStyle=orthogonalEdgeStyle;curved=0;rounded=0;" edge="1" parent="1">
          <mxGeometry x="0.0196" relative="1" as="geometry">
            <mxPoint x="845" y="344.98" as="sourcePoint" />
            <Array as="points">
              <mxPoint x="875" y="374.98" />
            </Array>
            <mxPoint x="849.9999999999998" y="375.02761904761905" as="targetPoint" />
            <mxPoint as="offset" />
          </mxGeometry>
        </mxCell>
        <mxCell id="eCiQWhm53xYrDc2u4jvQ-55" value="6、数据转换" style="html=1;align=left;spacingLeft=2;endArrow=block;rounded=0;edgeStyle=orthogonalEdgeStyle;curved=0;rounded=0;" edge="1" parent="1">
          <mxGeometry x="0.0077" relative="1" as="geometry">
            <mxPoint x="845" y="390" as="sourcePoint" />
            <Array as="points">
              <mxPoint x="875" y="420" />
            </Array>
            <mxPoint x="849.9999999999998" y="420.04761904761904" as="targetPoint" />
            <mxPoint as="offset" />
          </mxGeometry>
        </mxCell>
        <mxCell id="eCiQWhm53xYrDc2u4jvQ-56" value="7、数据统一校验" style="html=1;align=left;spacingLeft=2;endArrow=block;rounded=0;edgeStyle=orthogonalEdgeStyle;curved=0;rounded=0;" edge="1" parent="1">
          <mxGeometry x="0.0077" relative="1" as="geometry">
            <mxPoint x="845" y="440" as="sourcePoint" />
            <Array as="points">
              <mxPoint x="875" y="470" />
            </Array>
            <mxPoint x="849.9999999999998" y="470.04761904761904" as="targetPoint" />
            <mxPoint as="offset" />
          </mxGeometry>
        </mxCell>
        <mxCell id="eCiQWhm53xYrDc2u4jvQ-57" value="" style="html=1;points=[[0,0,0,0,5],[0,1,0,0,-5],[1,0,0,0,5],[1,1,0,0,-5]];perimeter=orthogonalPerimeter;outlineConnect=0;targetShapes=umlLifeline;portConstraint=eastwest;newEdgeStyle={&quot;curved&quot;:0,&quot;rounded&quot;:0};" vertex="1" parent="1">
          <mxGeometry x="165" y="300" width="10" height="300" as="geometry" />
        </mxCell>
        <mxCell id="eCiQWhm53xYrDc2u4jvQ-62" style="edgeStyle=orthogonalEdgeStyle;rounded=0;orthogonalLoop=1;jettySize=auto;html=1;curved=0;" edge="1" parent="1" source="eCiQWhm53xYrDc2u4jvQ-45">
          <mxGeometry relative="1" as="geometry">
            <mxPoint x="175" y="495" as="targetPoint" />
            <Array as="points">
              <mxPoint x="510" y="495" />
              <mxPoint x="510" y="495" />
            </Array>
          </mxGeometry>
        </mxCell>
        <mxCell id="eCiQWhm53xYrDc2u4jvQ-63" value="8.2 返回给到用户错误信息，进行检索修改" style="edgeLabel;html=1;align=center;verticalAlign=middle;resizable=0;points=[];" vertex="1" connectable="0" parent="eCiQWhm53xYrDc2u4jvQ-62">
          <mxGeometry x="0.144" y="-3" relative="1" as="geometry">
            <mxPoint x="42" y="-12" as="offset" />
          </mxGeometry>
        </mxCell>
        <mxCell id="eCiQWhm53xYrDc2u4jvQ-69" style="edgeStyle=orthogonalEdgeStyle;rounded=0;orthogonalLoop=1;jettySize=auto;html=1;curved=0;" edge="1" parent="1">
          <mxGeometry relative="1" as="geometry">
            <mxPoint x="845" y="548.0000000000002" as="targetPoint" />
            <mxPoint x="1025" y="548.0000000000002" as="sourcePoint" />
            <Array as="points">
              <mxPoint x="900" y="548" />
              <mxPoint x="900" y="548" />
            </Array>
          </mxGeometry>
        </mxCell>
        <mxCell id="eCiQWhm53xYrDc2u4jvQ-70" value="9.3 数据写入成功" style="edgeLabel;html=1;align=center;verticalAlign=middle;resizable=0;points=[];" vertex="1" connectable="0" parent="eCiQWhm53xYrDc2u4jvQ-69">
          <mxGeometry x="0.2134" y="3" relative="1" as="geometry">
            <mxPoint x="24" y="9" as="offset" />
          </mxGeometry>
        </mxCell>
        <mxCell id="eCiQWhm53xYrDc2u4jvQ-65" value="" style="html=1;points=[[0,0,0,0,5],[0,1,0,0,-5],[1,0,0,0,5],[1,1,0,0,-5]];perimeter=orthogonalPerimeter;outlineConnect=0;targetShapes=umlLifeline;portConstraint=eastwest;newEdgeStyle={&quot;curved&quot;:0,&quot;rounded&quot;:0};" vertex="1" parent="1">
          <mxGeometry x="1025" y="470" width="10" height="90" as="geometry" />
        </mxCell>
        <mxCell id="eCiQWhm53xYrDc2u4jvQ-68" value="9.2 经销商数据写入新接口&lt;br&gt;（注：订单、门店额外逻辑）" style="html=1;align=left;spacingLeft=2;endArrow=block;rounded=0;edgeStyle=orthogonalEdgeStyle;curved=0;rounded=0;" edge="1" parent="1">
          <mxGeometry relative="1" as="geometry">
            <mxPoint x="1035" y="500" as="sourcePoint" />
            <Array as="points">
              <mxPoint x="1065" y="530" />
            </Array>
            <mxPoint x="1039.9999999999998" y="530.047619047619" as="targetPoint" />
          </mxGeometry>
        </mxCell>
        <mxCell id="eCiQWhm53xYrDc2u4jvQ-75" value="" style="endArrow=classic;html=1;rounded=0;dashed=1;" edge="1" parent="1">
          <mxGeometry width="50" height="50" relative="1" as="geometry">
            <mxPoint x="169.70999999999998" y="250" as="sourcePoint" />
            <mxPoint x="170" y="300" as="targetPoint" />
          </mxGeometry>
        </mxCell>
      </root>
    </mxGraphModel>
  </diagram>
</mxfile>
